<?xml version="1.0" encoding="UTF-8"?>
<svg id="Layer_1" data-name="Layer 1" xmlns="http://www.w3.org/2000/svg" viewBox="0 0 512 512">
  <defs>
    <style>
      .cls-1 {
        fill: none;
      }
    </style>
  </defs>
  <path class="cls-1" d="M185.75,410.1h174.83v-26.2h-207.31c3.23,14.97,16.54,26.2,32.48,26.2Z"/>
  <path class="cls-1" d="M153.27,369.82h207.31v-26.2h-174.83c-15.94,0-29.25,11.22-32.48,26.2Z"/>
  <path d="M391.65,343.62c12.27,0,22.22-9.95,22.22-22.22V79.68c0-16.58-13.44-30.03-30.03-30.03h-240.08c-25.2,0-45.64,20.43-45.64,45.64v321.41c0,25.2,20.43,45.64,45.64,45.64h240.08c16.58,0,30.03-13.44,30.03-30.03,0-12.27-9.95-22.22-22.22-22.22h-4.55v-66.47h4.55ZM199.98,179.29l28.49-4.14c2.92-.42,5.45-2.26,6.75-4.91l12.74-25.81c3.29-6.66,12.79-6.66,16.08,0l12.74,25.81c1.31,2.65,3.83,4.48,6.75,4.91l28.49,4.14c7.35,1.07,10.29,10.11,4.97,15.29l-20.61,20.09c-2.11,2.06-3.08,5.03-2.58,7.94l4.87,28.37c1.26,7.32-6.43,12.91-13.01,9.45l-25.48-13.4c-2.61-1.37-5.73-1.37-8.35,0l-25.48,13.4c-6.58,3.46-14.27-2.13-13.01-9.45l4.87-28.37c.5-2.91-.47-5.88-2.58-7.94l-20.61-20.09c-5.32-5.19-2.39-14.23,4.97-15.29ZM360.58,410.1h-174.83c-15.94,0-29.25-11.22-32.48-26.2h207.31v26.2ZM360.58,369.82h-207.31c3.23-14.97,16.54-26.2,32.48-26.2h174.83v26.2Z"/>
</svg>