<?xml version="1.0" encoding="UTF-8"?>
<svg id="Layer_1" data-name="Layer 1" xmlns="http://www.w3.org/2000/svg" viewBox="0 0 512 512">
  <path d="M373.17,56h-234.33c-5.98,0-10.83,4.85-10.83,10.83v366.96c0,9.03,10.39,14.09,17.5,8.54l103.83-81.12c3.92-3.06,9.42-3.06,13.34,0l103.83,81.12c7.11,5.56,17.5.49,17.5-8.54V66.83c0-5.98-4.85-10.83-10.83-10.83ZM343.33,228.67c0,5.71-4.63,10.33-10.33,10.33h-40.67c-5.71,0-10.33,4.63-10.33,10.33v40.67c0,5.71-4.63,10.33-10.33,10.33h-31.33c-5.71,0-10.33-4.63-10.33-10.33v-40.67c0-5.71-4.63-10.33-10.33-10.33h-40.67c-5.71,0-10.33-4.63-10.33-10.33v-31.33c0-5.71,4.63-10.33,10.33-10.33h40.67c5.71,0,10.33-4.63,10.33-10.33v-40.67c0-5.71,4.63-10.33,10.33-10.33h31.33c5.71,0,10.33,4.63,10.33,10.33v40.67c0,5.71,4.63,10.33,10.33,10.33h40.67c5.71,0,10.33,4.63,10.33,10.33v31.33Z"/>
</svg>
