<?xml version="1.0" encoding="UTF-8"?>
<svg id="Layer_1" data-name="Layer 1" xmlns="http://www.w3.org/2000/svg" viewBox="0 0 512 512">
  <path d="M232.78,386.52c0-44.38-35.98-80.36-80.36-80.36s-80.36,35.98-80.36,80.36c0,37.95-29.48,38.67-29.48,38.67l.02.23c-10.49,1.54-18.55,10.58-18.55,21.5,0,12,9.73,20.54,21.73,20.54h109c43.29-1.25,78-37.35,78-80.94Z"/>
  <path d="M467.94,132.64c.4-.4.78-.81,1.17-1.21l1.07-1.07-.03-.03c21.19-23.09,23.93-55.53,5.74-73.72-18.18-18.18-50.62-15.44-73.72,5.74l-.03-.03-1.07,1.07c-.41.39-.82.77-1.21,1.17-.2.2-.39.4-.59.61-.39.41-.79.8-1.2,1.18l-199.13,181.93c-1,.91-1.93,1.9-2.79,2.94l-25.09,30.67c-7.26,8.87-7.76,20.48-1.18,27.07l53.63,53.63c6.6,6.6,18.23,6.08,27.11-1.21l31.42-25.79c1.03-.85,2.01-1.77,2.91-2.76l181.21-198.41c.38-.41.77-.81,1.18-1.2.2-.19.41-.39.61-.59Z"/>
</svg>