<?xml version="1.0" encoding="UTF-8"?>
<svg id="Layer_1" data-name="Layer 1" xmlns="http://www.w3.org/2000/svg" viewBox="0 0 512 512">
  <path d="M345.14,443.99h-179.87c-5.65,0-10.37-3.9-10.9-8.99l-28.61-279.66h258.88l-28.61,279.66c-.52,5.1-5.24,8.99-10.9,8.99Z"/>
  <path d="M321.64,96.19l-6.7-18.99c-1.93-5.47-7.59-9.19-13.99-9.19h-89.89c-6.4,0-12.06,3.72-13.99,9.19l-6.7,18.99h-87.52c-5.49,0-9.95,3.99-9.95,8.91v16.93c0,4.92,4.45,8.91,9.95,8.91h306.33c5.49,0,9.95-3.99,9.95-8.91v-16.93c0-4.92-4.45-8.91-9.95-8.91h-87.52Z"/>
</svg>