<?xml version="1.0" encoding="UTF-8"?>
<svg id="Layer_1" data-name="Layer 1" xmlns="http://www.w3.org/2000/svg" viewBox="0 0 512 512">
  <path d="M195.92,372.24l-42.35,5.79c-5.7.78-10.61-4.01-9.98-9.73l4.7-42.49c.22-1.96,1.08-3.79,2.46-5.2l194.02-199.05,50.31,49.04-194.02,199.05c-1.37,1.41-3.18,2.32-5.13,2.59Z"/>
  <path d="M384.28,75.42h40.58c8.19,0,14.83,6.65,14.83,14.83v55.42h-70.25v-55.42c0-8.19,6.65-14.83,14.83-14.83Z" transform="translate(192.02 -251.01) rotate(44.27)"/>
  <path d="M385.22,462.33H83.53c-17.8,0-32.28-14.48-32.28-32.28V128.37c0-17.8,14.48-32.28,32.28-32.28h133.98c8.28,0,15,6.72,15,15s-6.72,15-15,15H83.53c-1.26,0-2.28,1.02-2.28,2.28v301.69c0,1.25,1.02,2.28,2.28,2.28h301.69c1.26,0,2.28-1.02,2.28-2.28v-138.02c0-8.28,6.72-15,15-15s15,6.72,15,15v138.02c0,17.8-14.48,32.28-32.28,32.28Z"/>
</svg>