<?xml version="1.0" encoding="UTF-8"?>
<svg id="Layer_1" data-name="Layer 1" xmlns="http://www.w3.org/2000/svg" viewBox="0 0 512 512">
  <path d="M427.57,248.54l-113.89-113.89c-4.12-4.12-10.81-4.12-14.93,0l-25.36,25.36c-4.12,4.12-4.12,10.81,0,14.93l51.31,51.31h-82.03V98.06c0-9.64-7.82-17.46-17.46-17.46h-127.08c-9.64,0-17.46,7.82-17.46,17.46v315.88c0,9.64,7.82,17.46,17.46,17.46h127.08c9.64,0,17.46-7.82,17.46-17.46v-128.19h82.03l-51.31,51.31c-4.12,4.12-4.12,10.81,0,14.93l25.36,25.36c4.12,4.12,10.81,4.12,14.93,0l113.89-113.89c4.12-4.12,4.12-10.81,0-14.93Z"/>
</svg>