<?xml version="1.0" encoding="UTF-8"?>
<svg id="Layer_1" data-name="Layer 1" xmlns="http://www.w3.org/2000/svg" viewBox="0 0 512 512">
  <path d="M256,112.09c-89.17,0-165.35,55.58-195.81,133.99-2.47,6.37-2.47,13.46,0,19.83,30.46,78.41,106.64,133.99,195.81,133.99s165.06-55.37,195.63-133.54c2.61-6.68,2.61-14.06,0-20.74-30.57-78.17-106.63-133.54-195.63-133.54ZM257.81,350.98c-53.9,1-97.79-42.89-96.79-96.79.94-50.79,42.39-92.24,93.18-93.18,53.89-1,97.79,42.89,96.79,96.79-.94,50.79-42.39,92.24-93.18,93.18Z"/>
  <path d="M256,188.82c-3.2,0-6.35.24-9.43.67,7.68,5.71,12.65,14.86,12.65,25.16,0,17.31-14.03,31.34-31.34,31.34-14.49,0-26.68-9.84-30.27-23.2-5.58,9.8-8.79,21.12-8.79,33.2,0,37.1,30.08,67.18,67.17,67.18s67.18-30.08,67.18-67.18-30.08-67.18-67.18-67.18Z"/>
</svg>