<?xml version="1.0" encoding="UTF-8"?>
<svg id="Layer_1" data-name="Layer 1" xmlns="http://www.w3.org/2000/svg" viewBox="0 0 512 512">
  <path d="M284.5,36.58c-2.06-.27-4.06-.7-6.13-.91-7.36-.74-14.82-1.13-22.36-1.13s-15.01.39-22.36,1.13c-2.07.21-4.07.65-6.13.91C118.83,50.64,34.54,143.56,34.54,256s84.29,205.36,192.96,219.42c2.06.27,4.06.7,6.13.91,7.36.74,14.82,1.13,22.36,1.13s15.01-.39,22.36-1.13c2.07-.21,4.08-.65,6.13-.91,108.67-14.06,192.96-106.98,192.96-219.42S393.17,50.64,284.5,36.58ZM435.76,234.38h-85.23c-3.17-54.59-18.21-106.02-42.46-151.87,67.91,20.43,119.04,79.69,127.69,151.87ZM255.16,74.84c.28,0,.55-.04.84-.04s.55.04.84.04c30.39,46.48,49.48,100.94,53.3,159.53h-108.27c3.82-58.6,22.92-113.05,53.3-159.53ZM203.93,82.51c-24.25,45.85-39.29,97.28-42.46,151.87h-85.23c8.65-72.17,59.77-131.44,127.69-151.87ZM76.24,277.62h85.23c3.17,54.59,18.21,106.02,42.46,151.87-67.91-20.42-119.04-79.69-127.69-151.87ZM256.83,437.16c-.28,0-.55.04-.83.04s-.55-.04-.83-.04c-30.39-46.48-49.48-100.94-53.3-159.53h108.27c-3.82,58.59-22.92,113.05-53.3,159.53ZM308.07,429.49c24.25-45.85,39.29-97.28,42.46-151.87h85.23c-8.65,72.18-59.77,131.44-127.69,151.87Z"/>
</svg>