<?xml version="1.0" encoding="UTF-8"?>
<svg id="Layer_1" data-name="Layer 1" xmlns="http://www.w3.org/2000/svg" viewBox="0 0 512 512">
  <path d="M459.89,338.59l-52.06-22.61-123.11,53.47c-9.12,3.96-18.78,5.97-28.72,5.97s-19.6-2.01-28.72-5.97l-123.11-53.47-52.06,22.61c-9.55,4.15-9.55,17.7,0,21.85l181.54,78.85c14.25,6.19,30.44,6.19,44.69,0l181.54-78.85c9.55-4.15,9.55-17.7,0-21.85Z"/>
  <path d="M52.11,182.41l181.54,78.85c14.25,6.19,30.44,6.19,44.69,0l181.54-78.85c9.55-4.15,9.55-17.7,0-21.85l-181.54-78.85c-14.25-6.19-30.44-6.19-44.69,0L52.11,160.56c-9.55,4.15-9.55,17.7,0,21.85Z"/>
  <path d="M52.11,271.92l181.54,78.85c14.25,6.19,30.44,6.19,44.69,0l181.54-78.85c9.55-4.15,9.55-17.7,0-21.85l-52.06-22.61-123.11,53.47c-9.12,3.96-18.78,5.97-28.72,5.97s-19.6-2.01-28.72-5.97l-123.11-53.47-52.06,22.61c-9.55,4.15-9.55,17.7,0,21.85Z"/>
</svg>