<?xml version="1.0" encoding="UTF-8"?>
<svg id="Layer_1" data-name="Layer 1" xmlns="http://www.w3.org/2000/svg" viewBox="0 0 512 512">
  <path d="M414.17,81H97.83c-9.29,0-16.83,7.53-16.83,16.83v128.48h115.62l-51.2-51.2c-4.11-4.11-4.11-10.78,0-14.89l25.3-25.3c4.11-4.11,10.78-4.11,14.89,0l113.63,113.63c4.11,4.11,4.11,10.78,0,14.89l-113.63,113.63c-4.11,4.11-10.78,4.11-14.89,0l-25.3-25.3c-4.11-4.11-4.11-10.78,0-14.89l51.19-51.2h-115.62v128.48c0,9.29,7.54,16.83,16.83,16.83h316.34c9.29,0,16.83-7.53,16.83-16.83V97.83c0-9.29-7.54-16.83-16.83-16.83Z"/>
</svg>