<?xml version="1.0" encoding="UTF-8"?>
<svg id="Layer_1" data-name="Layer 1" xmlns="http://www.w3.org/2000/svg" viewBox="0 0 512 512">
  <defs>
    <style>
      .cls-1 {
        fill: none;
      }
    </style>
  </defs>
  <path class="cls-1" d="M256,101.5c-40.16,0-72.83,32.67-72.83,72.83v49.6h145.65v-49.6c0-40.16-32.67-72.83-72.83-72.83Z"/>
  <path d="M395.49,223.92h-26.67v-49.6c0-62.21-50.61-112.83-112.83-112.83s-112.83,50.61-112.83,112.83v49.6h-26.67c-5.84,0-10.57,4.73-10.57,10.57v185.44c0,5.84,4.73,10.57,10.57,10.57h278.98c5.84,0,10.57-4.73,10.57-10.57v-185.44c0-5.84-4.73-10.57-10.57-10.57ZM272.33,330.1v31.52c0,9.02-7.31,16.33-16.33,16.33s-16.33-7.31-16.33-16.33v-31.52c-8.86-5.61-14.63-15.65-14.2-27,.59-15.51,13.04-28.32,28.54-29.31,17.78-1.13,32.55,12.96,32.55,30.49,0,10.87-5.68,20.4-14.23,25.82ZM328.83,223.92h-145.65v-49.6c0-40.16,32.67-72.83,72.83-72.83s72.83,32.67,72.83,72.83v49.6Z"/>
</svg>