<?xml version="1.0" encoding="UTF-8"?>
<svg id="Layer_1" data-name="Layer 1" xmlns="http://www.w3.org/2000/svg" viewBox="0 0 512 512">
  <path d="M413.26,421.41l66.69-156.24c4.11-9.62-2.95-20.3-13.41-20.3H186.36l-41.45,84.34c-1.46,2.17-3.84,3.34-6.27,3.34-1.44,0-2.9-.41-4.19-1.28-3.46-2.32-4.38-7-2.07-10.46l43.69-87.68c1.4-2.09,3.75-3.34,6.26-3.34h226.2v-73.6c0-8.05-6.53-14.58-14.58-14.58h-219.73l-10.82-17.78c-2.65-4.35-7.37-7-12.45-7h-83.82c-8.05,0-14.58,6.53-14.58,14.58v285.09c0,8.05,6.53,14.58,14.58,14.58h331.51c6.37,0,12.13-3.8,14.63-9.66Z"/>
</svg>