<?xml version="1.0" encoding="UTF-8"?>
<svg id="Layer_1" data-name="Layer 1" xmlns="http://www.w3.org/2000/svg" viewBox="0 0 512 512">
  <path d="M96.25,274.87c8.48-4.39,13.93-13.12,14.21-22.77.41-14.33,2.97-28.55,7.59-42.27,24.88-73.8,105.73-115.36,180.23-92.65,7.97,2.43,15.67,5.51,23.03,9.21l-21.79.05c-3.85,0-7.47,1.52-10.18,4.24s-4.21,6.35-4.2,10.2l.05,23.49c.02,7.94,6.48,14.38,14.41,14.38h.03l105.5-.23c3.85,0,7.47-1.52,10.18-4.24s4.21-6.35,4.2-10.2l-.23-105.5c0-3.85-1.51-7.47-4.24-10.18-2.73-2.72-6.39-4.2-10.2-4.2l-23.49.05c-3.85,0-7.47,1.52-10.18,4.24s-4.21,6.35-4.2,10.2l.07,32.81c-15.95-10.73-33.4-19.08-52.06-24.89-50.52-15.74-106.28-10.42-152.98,14.59-45.82,24.54-79.73,65.36-95.49,114.94-5.69,17.9-8.84,36.38-9.35,54.93-.26,9.44,4.35,18.07,12.34,23.09,4.3,2.7,9.11,4.05,13.94,4.05,4.12,0,8.26-.99,12.11-2.98l.72-.37Z"/>
  <path d="M442.3,238.48c-7.95-4.99-17.68-5.39-26.02-1.07l-.76.39c-8.48,4.39-13.92,13.11-14.19,22.76-.41,14.32-2.96,28.54-7.58,42.25-24.99,74.23-103.46,115.16-178.63,93.18-9.35-2.74-18.32-6.35-26.83-10.82l22.82-.05c7.95-.02,14.4-6.5,14.38-14.45l-.05-23.49c-.02-7.94-6.48-14.38-14.42-14.38h-.03l-105.5.23c-3.85,0-7.47,1.52-10.18,4.24s-4.21,6.35-4.2,10.2l.23,105.5c0,3.85,1.52,7.47,4.24,10.18,2.72,2.71,6.33,4.2,10.17,4.2h.03l23.49-.05c7.95-.02,14.4-6.5,14.38-14.45l-.07-32.48c15.95,10.9,33.41,19.4,52.1,25.34,50.59,16.08,104.41,11.5,151.55-12.9,47.14-24.4,81.96-65.7,98.04-116.28,5.7-17.92,8.84-36.42,9.36-55,.26-9.44-4.35-18.06-12.33-23.07Z"/>
</svg>