<?xml version="1.0" encoding="UTF-8"?>
<svg id="Layer_1" data-name="Layer 1" xmlns="http://www.w3.org/2000/svg" viewBox="0 0 512 512">
  <path d="M431.02,258.45c0-27.97,13.19-52.62,33.41-68.9-3.25-10.32-7.43-20.19-12.11-29.78-25.87,2.85-52.72-5.24-72.56-25.08-20.24-20.24-28.31-47.79-24.93-74.14-9.2-4.68-18.75-8.72-28.65-12.08-16.24,21.12-41.49,34.96-70.18,34.96s-53.95-13.84-70.19-34.96c-9.89,3.36-19.45,7.4-28.65,12.08,3.38,26.35-4.69,53.9-24.93,74.14-19.84,19.84-46.69,27.93-72.56,25.08-4.68,9.59-8.86,19.46-12.11,29.78,20.21,16.28,33.41,40.93,33.41,68.9s-12.43,51.13-31.61,67.42c3.66,10.72,8.04,21.09,13.25,30.98,24.95-1.92,50.54,6.28,69.62,25.36,18.68,18.68,26.95,43.59,25.51,68.04,10.29,5.2,20.97,9.74,32.11,13.28,16.27-18.3,39.73-30.05,66.14-30.05s49.87,11.76,66.14,30.05c11.15-3.54,21.82-8.08,32.11-13.28-1.44-24.45,6.83-49.36,25.51-68.04,19.08-19.08,44.67-27.28,69.62-25.36,5.21-9.89,9.59-20.26,13.25-30.98-19.18-16.29-31.61-40.28-31.61-67.42ZM256,320.29c-35.91,0-65.03-29.11-65.03-65.03s29.11-65.03,65.03-65.03,65.03,29.11,65.03,65.03-29.11,65.03-65.03,65.03Z"/>
</svg>