<?xml version="1.0" encoding="UTF-8"?>
<svg id="Layer_1" data-name="Layer 1" xmlns="http://www.w3.org/2000/svg" viewBox="0 0 512 512">
  <path d="M264.04,46.88l62.48,126.6c1.31,2.65,3.83,4.48,6.75,4.91l139.71,20.3c7.35,1.07,10.29,10.11,4.97,15.29l-101.1,98.54c-2.11,2.06-3.08,5.03-2.58,7.94l23.87,139.15c1.26,7.32-6.43,12.91-13.01,9.45l-124.96-65.7c-2.61-1.37-5.73-1.37-8.35,0l-124.96,65.7c-6.58,3.46-14.27-2.13-13.01-9.45l23.87-139.15c.5-2.91-.47-5.88-2.58-7.94l-101.1-98.54c-5.32-5.19-2.39-14.23,4.97-15.29l139.71-20.3c2.92-.42,5.45-2.26,6.75-4.91l62.48-126.6c3.29-6.66,12.79-6.66,16.08,0Z"/>
</svg>