<?xml version="1.0" encoding="UTF-8"?>
<svg id="Layer_1" data-name="Layer 1" xmlns="http://www.w3.org/2000/svg" viewBox="0 0 512 512">
  <path d="M274.86,60.16h0,0M256,98.38l43.62,88.38c5.68,11.5,16.65,19.47,29.34,21.31l97.54,14.17-70.58,68.8c-9.19,8.95-13.38,21.85-11.21,34.49l16.66,97.14-87.24-45.86c-5.57-2.93-11.84-4.48-18.13-4.48s-12.56,1.55-18.13,4.48l-87.24,45.86,16.66-97.15c2.17-12.64-2.02-25.53-11.21-34.49l-70.58-68.8,97.54-14.17c12.7-1.85,23.66-9.82,29.34-21.32l43.62-88.38M256,41.89c-3.2,0-6.4,1.67-8.04,5l-62.48,126.6c-1.31,2.65-3.83,4.48-6.75,4.91l-139.71,20.3c-7.35,1.07-10.29,10.11-4.97,15.29l101.1,98.54c2.11,2.06,3.08,5.03,2.58,7.94l-23.87,139.15c-.99,5.8,3.61,10.5,8.84,10.5,1.38,0,2.8-.33,4.17-1.05l124.96-65.7c1.31-.69,2.74-1.03,4.17-1.03s2.87.34,4.17,1.03l124.96,65.7c1.37.72,2.8,1.05,4.17,1.05,5.22,0,9.83-4.71,8.84-10.5l-23.87-139.15c-.5-2.91.47-5.88,2.58-7.94l101.1-98.54c5.32-5.19,2.39-14.23-4.97-15.29l-139.71-20.3c-2.92-.42-5.45-2.26-6.75-4.91l-62.48-126.6c-1.64-3.33-4.84-5-8.04-5h0Z"/>
</svg>