<?xml version="1.0" encoding="UTF-8"?>
<svg id="Layer_1" data-name="Layer 1" xmlns="http://www.w3.org/2000/svg" viewBox="0 0 512 512">
  <path d="M409.71,271.06l16.52-144.24c2.76-24.13-17.66-44.55-41.79-41.79l-144.24,16.52c-8.47.97-16.36,4.78-22.39,10.81l-145.1,145.1c-14.74,14.74-14.74,38.63,0,53.37l127.72,127.72c14.74,14.74,38.63,14.74,53.37,0l145.1-145.1c6.03-6.03,9.84-13.92,10.81-22.39ZM346.26,165c-11.41-11.41-11.41-29.92,0-41.33,11.41-11.41,29.92-11.41,41.33,0,11.41,11.41,11.41,29.92,0,41.33-11.41,11.41-29.92,11.41-41.33,0Z"/>
</svg>