<?xml version="1.0" encoding="UTF-8"?>
<svg id="Layer_1" data-name="Layer 1" xmlns="http://www.w3.org/2000/svg" viewBox="0 0 512 512">
  <path d="M395.49,223.92h-210.07c0-1-.05-2-.21-3.01l-9.42-61.79c-6.05-39.7,21.32-76.92,61.02-82.97,19.23-2.93,38.45,1.8,54.12,13.33,15.67,11.53,25.91,28.46,28.85,47.69,1.66,10.92,11.86,18.42,22.79,16.76,10.92-1.66,18.42-11.87,16.76-22.79-4.54-29.79-20.41-56.03-44.69-73.89-24.28-17.86-54.05-25.19-83.85-20.65-61.5,9.37-103.91,67.04-94.54,128.54l8.96,58.77h-28.71c-5.84,0-10.57,4.73-10.57,10.57v185.44c0,5.84,4.73,10.57,10.57,10.57h278.98c5.84,0,10.57-4.73,10.57-10.57v-185.44c0-5.84-4.73-10.57-10.57-10.57ZM272.33,330.1v31.52c0,9.02-7.31,16.33-16.33,16.33s-16.33-7.31-16.33-16.33v-31.52c-8.86-5.61-14.63-15.65-14.2-27,.59-15.51,13.04-28.32,28.54-29.31,17.78-1.13,32.55,12.96,32.55,30.49,0,10.87-5.68,20.4-14.23,25.82Z"/>
</svg>