<?xml version="1.0" encoding="UTF-8"?>
<svg id="Layer_1" data-name="Layer 1" xmlns="http://www.w3.org/2000/svg" viewBox="0 0 512 512">
  <path d="M397.3,215.05c30.19-67.34.08-146.4-67.26-176.59-67.34-30.19-146.4-.08-176.59,67.26-26.49,59.08-6.55,127.18,44.21,163.38l-14.18,31.62c-1.3,2.9-4.7,4.2-7.6,2.9l-1.11-.5c-2.9-1.3-6.3,0-7.6,2.9l-63.32,141.23c-2.28,5.09,0,11.06,5.08,13.34l53.04,23.78c5.09,2.28,11.06,0,13.34-5.08l63.32-141.23c1.3-2.9,0-6.3-2.9-7.6l-1.11-.5c-2.9-1.3-4.2-4.7-2.9-7.6l14.18-31.62c60.8,13.82,124.91-16.6,151.4-75.68ZM187.54,121.01c21.72-48.43,78.79-70.17,127.22-48.46,48.43,21.72,70.17,78.79,48.46,127.22-21.72,48.43-78.79,70.17-127.22,48.46-48.43-21.72-70.17-78.79-48.45-127.22Z"/>
</svg>